<?xml version="1.0" encoding="UTF-8"?>
<!--Generator: Apple Native CoreSVG 326-->
<!DOCTYPE svg
PUBLIC "-//W3C//DTD SVG 1.1//EN"
       "http://www.w3.org/Graphics/SVG/1.1/DTD/svg11.dtd">
<svg version="1.1" xmlns="http://www.w3.org/2000/svg" xmlns:xlink="http://www.w3.org/1999/xlink" viewBox="0 0 3300 2200">
 <!--glyph: "", point size: 100.0, font version: "20.0d8e1", template writer version: "138.0.0"-->
 <style>.monochrome-0 {}
.monochrome-1 {opacity:0.0;-sfsymbols-clear-behind:true}
.monochrome-2 {}
.monochrome-3 {opacity:0.0;-sfsymbols-clear-behind:true}
.monochrome-4 {}
.monochrome-5 {}
.monochrome-6 {}

.multicolor-0:tintColor {}
.multicolor-1:tintColor {opacity:0.0;-sfsymbols-clear-behind:true}
.multicolor-2:tintColor {}
.multicolor-3:tintColor {opacity:0.0;-sfsymbols-clear-behind:true}
.multicolor-4:tintColor {}
.multicolor-5:tintColor {}
.multicolor-6:tintColor {}

.hierarchical-0:secondary {}
.hierarchical-1:primary {opacity:0.0;-sfsymbols-clear-behind:true}
.hierarchical-2:secondary {}
.hierarchical-3:primary {opacity:0.0;-sfsymbols-clear-behind:true}
.hierarchical-4:secondary {}
.hierarchical-5:primary {}
.hierarchical-6:primary {}

.SFSymbolsPreview007AFF {fill:#007AFF;opacity:1.0}
.SFSymbolsPreviewFFFFFF {fill:#FFFFFF;opacity:1.0}
</style>
 <g id="Notes">
  <rect height="2200" id="artboard" style="fill:white;opacity:1" width="3300" x="0" y="0"/>
  <line style="fill:none;stroke:black;opacity:1;stroke-width:0.5;" x1="263" x2="3036" y1="292" y2="292"/>
  <text style="stroke:none;fill:black;font-family:sans-serif;font-size:13;font-weight:bold;" transform="matrix(1 0 0 1 263 322)">Weight/Scale Variations</text>
  <text style="stroke:none;fill:black;font-family:sans-serif;font-size:13;text-anchor:middle;" transform="matrix(1 0 0 1 559.711 322)">Ultralight</text>
  <text style="stroke:none;fill:black;font-family:sans-serif;font-size:13;text-anchor:middle;" transform="matrix(1 0 0 1 856.422 322)">Thin</text>
  <text style="stroke:none;fill:black;font-family:sans-serif;font-size:13;text-anchor:middle;" transform="matrix(1 0 0 1 1153.13 322)">Light</text>
  <text style="stroke:none;fill:black;font-family:sans-serif;font-size:13;text-anchor:middle;" transform="matrix(1 0 0 1 1449.84 322)">Regular</text>
  <text style="stroke:none;fill:black;font-family:sans-serif;font-size:13;text-anchor:middle;" transform="matrix(1 0 0 1 1746.56 322)">Medium</text>
  <text style="stroke:none;fill:black;font-family:sans-serif;font-size:13;text-anchor:middle;" transform="matrix(1 0 0 1 2043.27 322)">Semibold</text>
  <text style="stroke:none;fill:black;font-family:sans-serif;font-size:13;text-anchor:middle;" transform="matrix(1 0 0 1 2339.98 322)">Bold</text>
  <text style="stroke:none;fill:black;font-family:sans-serif;font-size:13;text-anchor:middle;" transform="matrix(1 0 0 1 2636.69 322)">Heavy</text>
  <text style="stroke:none;fill:black;font-family:sans-serif;font-size:13;text-anchor:middle;" transform="matrix(1 0 0 1 2933.4 322)">Black</text>
  <line style="fill:none;stroke:black;opacity:1;stroke-width:0.5;" x1="263" x2="3036" y1="1903" y2="1903"/>
  <g transform="matrix(0.2 0 0 0.2 263 1933)">
   <path d="m46.2402 4.15039c21.7773 0 39.4531-17.627 39.4531-39.4043s-17.6758-39.4043-39.4531-39.4043c-21.7285 0-39.4043 17.627-39.4043 39.4043s17.6758 39.4043 39.4043 39.4043Zm0-7.42188c-17.6758 0-31.9336-14.3066-31.9336-31.9824s14.2578-31.9824 31.9336-31.9824 31.9824 14.3066 31.9824 31.9824-14.3066 31.9824-31.9824 31.9824Zm-17.9688-31.9824c0 2.14844 1.51367 3.61328 3.75977 3.61328h10.498v10.5957c0 2.19727 1.46484 3.71094 3.61328 3.71094 2.24609 0 3.71094-1.51367 3.71094-3.71094v-10.5957h10.5957c2.19727 0 3.71094-1.46484 3.71094-3.61328 0-2.19727-1.51367-3.71094-3.71094-3.71094h-10.5957v-10.5469c0-2.24609-1.46484-3.75977-3.71094-3.75977-2.14844 0-3.61328 1.51367-3.61328 3.75977v10.5469h-10.498c-2.24609 0-3.75977 1.51367-3.75977 3.71094Z"/>
  </g>
  <g transform="matrix(0.2 0 0 0.2 281.506 1933)">
   <path d="m58.5449 14.5508c27.4902 0 49.8047-22.3145 49.8047-49.8047s-22.3145-49.8047-49.8047-49.8047-49.8047 22.3145-49.8047 49.8047 22.3145 49.8047 49.8047 49.8047Zm0-8.30078c-22.9492 0-41.5039-18.5547-41.5039-41.5039s18.5547-41.5039 41.5039-41.5039 41.5039 18.5547 41.5039 41.5039-18.5547 41.5039-41.5039 41.5039Zm-22.6562-41.5039c0 2.39258 1.66016 4.00391 4.15039 4.00391h14.3555v14.4043c0 2.44141 1.66016 4.15039 4.05273 4.15039 2.44141 0 4.15039-1.66016 4.15039-4.15039v-14.4043h14.4043c2.44141 0 4.15039-1.61133 4.15039-4.00391 0-2.44141-1.70898-4.15039-4.15039-4.15039h-14.4043v-14.3555c0-2.49023-1.70898-4.19922-4.15039-4.19922-2.39258 0-4.05273 1.70898-4.05273 4.19922v14.3555h-14.3555c-2.49023 0-4.15039 1.70898-4.15039 4.15039Z"/>
  </g>
  <g transform="matrix(0.2 0 0 0.2 304.924 1933)">
   <path d="m74.8535 28.3203c35.1074 0 63.623-28.4668 63.623-63.5742s-28.5156-63.623-63.623-63.623-63.5742 28.5156-63.5742 63.623 28.4668 63.5742 63.5742 63.5742Zm0-9.08203c-30.127 0-54.4922-24.3652-54.4922-54.4922s24.3652-54.4922 54.4922-54.4922 54.4922 24.3652 54.4922 54.4922-24.3652 54.4922-54.4922 54.4922Zm-28.8574-54.4922c0 2.58789 1.85547 4.39453 4.58984 4.39453h19.7266v19.7754c0 2.68555 1.85547 4.58984 4.44336 4.58984 2.68555 0 4.54102-1.85547 4.54102-4.58984v-19.7754h19.7754c2.68555 0 4.58984-1.80664 4.58984-4.39453 0-2.73438-1.85547-4.58984-4.58984-4.58984h-19.7754v-19.7266c0-2.73438-1.85547-4.63867-4.54102-4.63867-2.58789 0-4.44336 1.9043-4.44336 4.63867v19.7266h-19.7266c-2.73438 0-4.58984 1.85547-4.58984 4.58984Z"/>
  </g>
  <text style="stroke:none;fill:black;font-family:sans-serif;font-size:13;font-weight:bold;" transform="matrix(1 0 0 1 263 1953)">Design Variations</text>
  <text style="stroke:none;fill:black;font-family:sans-serif;font-size:13;" transform="matrix(1 0 0 1 263 1971)">Symbols are supported in up to nine weights and three scales.</text>
  <text style="stroke:none;fill:black;font-family:sans-serif;font-size:13;" transform="matrix(1 0 0 1 263 1989)">For optimal layout with text and other symbols, vertically align</text>
  <text style="stroke:none;fill:black;font-family:sans-serif;font-size:13;" transform="matrix(1 0 0 1 263 2007)">symbols with the adjacent text.</text>
  <line style="fill:none;stroke:#00AEEF;stroke-width:0.5;opacity:1.0;" x1="776" x2="776" y1="1919" y2="1933"/>
  <g transform="matrix(0.2 0 0 0.2 776 1933)">
   <path d="m16.5527 0.78125c2.58789 0 3.85742-0.976562 4.78516-3.71094l6.29883-17.2363h28.8086l6.29883 17.2363c0.927734 2.73438 2.19727 3.71094 4.73633 3.71094 2.58789 0 4.24805-1.5625 4.24805-4.00391 0-0.830078-0.146484-1.61133-0.537109-2.63672l-22.9004-60.9863c-1.12305-2.97852-3.125-4.49219-6.25-4.49219-3.02734 0-5.07812 1.46484-6.15234 4.44336l-22.9004 61.084c-0.390625 1.02539-0.537109 1.80664-0.537109 2.63672 0 2.44141 1.5625 3.95508 4.10156 3.95508Zm13.4766-28.3691 11.8652-32.8613h0.244141l11.8652 32.8613Z"/>
  </g>
  <line style="fill:none;stroke:#00AEEF;stroke-width:0.5;opacity:1.0;" x1="792.836" x2="792.836" y1="1919" y2="1933"/>
  <text style="stroke:none;fill:black;font-family:sans-serif;font-size:13;font-weight:bold;" transform="matrix(1 0 0 1 776 1953)">Margins</text>
  <text style="stroke:none;fill:black;font-family:sans-serif;font-size:13;" transform="matrix(1 0 0 1 776 1971)">Leading and trailing margins on the left and right side of each symbol</text>
  <text style="stroke:none;fill:black;font-family:sans-serif;font-size:13;" transform="matrix(1 0 0 1 776 1989)">can be adjusted by modifying the x-location of the margin guidelines.</text>
  <text style="stroke:none;fill:black;font-family:sans-serif;font-size:13;" transform="matrix(1 0 0 1 776 2007)">Modifications are automatically applied proportionally to all</text>
  <text style="stroke:none;fill:black;font-family:sans-serif;font-size:13;" transform="matrix(1 0 0 1 776 2025)">scales and weights.</text>
  <g transform="matrix(0.2 0 0 0.2 1289 1933)">
   <path d="m14.209 9.32617 8.49609 8.54492c4.29688 4.3457 9.22852 4.05273 13.8672-1.07422l53.4668-58.9355-4.83398-4.88281-53.0762 58.3984c-1.75781 2.00195-3.41797 2.49023-5.76172 0.146484l-5.85938-5.81055c-2.34375-2.29492-1.80664-4.00391 0.195312-5.81055l57.373-54.0039-4.88281-4.83398-57.959 54.4434c-4.93164 4.58984-5.32227 9.47266-1.02539 13.8184Zm32.0801-90.9668c-2.09961 2.05078-2.24609 4.93164-1.07422 6.88477 1.17188 1.80664 3.4668 2.97852 6.68945 2.14844 7.32422-1.70898 14.9414-2.00195 22.0703 2.68555l-2.92969 7.27539c-1.70898 4.15039-0.830078 7.08008 1.85547 9.81445l11.4746 11.5723c2.44141 2.44141 4.49219 2.53906 7.32422 2.05078l5.32227-0.976562 3.32031 3.36914-0.195312 2.7832c-0.195312 2.49023 0.439453 4.39453 2.88086 6.78711l3.80859 3.71094c2.39258 2.39258 5.46875 2.53906 7.8125 0.195312l14.5508-14.5996c2.34375-2.34375 2.24609-5.32227-0.146484-7.71484l-3.85742-3.80859c-2.39258-2.39258-4.24805-3.17383-6.64062-2.97852l-2.88086 0.244141-3.22266-3.17383 1.2207-5.61523c0.634766-2.83203-0.146484-5.0293-3.07617-7.95898l-10.9863-10.9375c-16.6992-16.6016-38.8672-16.2109-53.3203-1.75781Zm7.4707 1.85547c12.1582-8.88672 28.6133-7.37305 39.7461 3.75977l12.1582 12.0605c1.17188 1.17188 1.36719 2.09961 1.02539 3.80859l-1.61133 7.42188 7.51953 7.42188 4.93164-0.292969c1.26953-0.0488281 1.66016 0.0488281 2.63672 1.02539l2.88086 2.88086-12.207 12.207-2.88086-2.88086c-0.976562-0.976562-1.12305-1.36719-1.07422-2.68555l0.341797-4.88281-7.4707-7.42188-7.61719 1.26953c-1.61133 0.341797-2.34375 0.195312-3.56445-0.976562l-10.0098-10.0098c-1.26953-1.17188-1.41602-2.00195-0.634766-3.85742l4.39453-10.4492c-7.8125-7.27539-17.9688-10.4004-28.125-7.42188-0.78125 0.195312-1.07422-0.439453-0.439453-0.976562Z"/>
  </g>
  <text style="stroke:none;fill:black;font-family:sans-serif;font-size:13;font-weight:bold;" transform="matrix(1 0 0 1 1289 1953)">Exporting</text>
  <text style="stroke:none;fill:black;font-family:sans-serif;font-size:13;" transform="matrix(1 0 0 1 1289 1971)">Symbols should be outlined when exporting to ensure the</text>
  <text style="stroke:none;fill:black;font-family:sans-serif;font-size:13;" transform="matrix(1 0 0 1 1289 1989)">design is preserved when submitting to Xcode.</text>
  <text id="template-version" style="stroke:none;fill:black;font-family:sans-serif;font-size:13;text-anchor:end;" transform="matrix(1 0 0 1 3036 1933)">Template v.4.0</text>
  <text style="stroke:none;fill:black;font-family:sans-serif;font-size:13;text-anchor:end;" transform="matrix(1 0 0 1 3036 1951)">Requires Xcode 14 or greater</text>
  <text id="descriptive-name" style="stroke:none;fill:black;font-family:sans-serif;font-size:13;text-anchor:end;" transform="matrix(1 0 0 1 3036 1969)">Generated from rectangle.stack</text>
  <text style="stroke:none;fill:black;font-family:sans-serif;font-size:13;text-anchor:end;" transform="matrix(1 0 0 1 3036 1987)">Typeset at 100.0 points</text>
  <text style="stroke:none;fill:black;font-family:sans-serif;font-size:13;" transform="matrix(1 0 0 1 263 726)">Small</text>
  <text style="stroke:none;fill:black;font-family:sans-serif;font-size:13;" transform="matrix(1 0 0 1 263 1156)">Medium</text>
  <text style="stroke:none;fill:black;font-family:sans-serif;font-size:13;" transform="matrix(1 0 0 1 263 1586)">Large</text>
 </g>
 <g id="Guides">
  <g id="H-reference" style="fill:#27AAE1;stroke:none;" transform="matrix(1 0 0 1 339 696)">
   <path d="M0.993654 0L3.63775 0L29.3281-67.1323L30.0303-67.1323L30.0303-70.459L28.1226-70.459ZM11.6885-24.4799L46.9815-24.4799L46.2315-26.7285L12.4385-26.7285ZM55.1196 0L57.7637 0L30.6382-70.459L29.4326-70.459L29.4326-67.1323Z"/>
  </g>
  <line id="Baseline-S" style="fill:none;stroke:#27AAE1;opacity:1;stroke-width:0.5;" x1="263" x2="3036" y1="696" y2="696"/>
  <line id="Capline-S" style="fill:none;stroke:#27AAE1;opacity:1;stroke-width:0.5;" x1="263" x2="3036" y1="625.541" y2="625.541"/>
  <g id="H-reference" style="fill:#27AAE1;stroke:none;" transform="matrix(1 0 0 1 339 1126)">
   <path d="M0.993654 0L3.63775 0L29.3281-67.1323L30.0303-67.1323L30.0303-70.459L28.1226-70.459ZM11.6885-24.4799L46.9815-24.4799L46.2315-26.7285L12.4385-26.7285ZM55.1196 0L57.7637 0L30.6382-70.459L29.4326-70.459L29.4326-67.1323Z"/>
  </g>
  <line id="Baseline-M" style="fill:none;stroke:#27AAE1;opacity:1;stroke-width:0.5;" x1="263" x2="3036" y1="1126" y2="1126"/>
  <line id="Capline-M" style="fill:none;stroke:#27AAE1;opacity:1;stroke-width:0.5;" x1="263" x2="3036" y1="1055.54" y2="1055.54"/>
  <g id="H-reference" style="fill:#27AAE1;stroke:none;" transform="matrix(1 0 0 1 339 1556)">
   <path d="M0.993654 0L3.63775 0L29.3281-67.1323L30.0303-67.1323L30.0303-70.459L28.1226-70.459ZM11.6885-24.4799L46.9815-24.4799L46.2315-26.7285L12.4385-26.7285ZM55.1196 0L57.7637 0L30.6382-70.459L29.4326-70.459L29.4326-67.1323Z"/>
  </g>
  <line id="Baseline-L" style="fill:none;stroke:#27AAE1;opacity:1;stroke-width:0.5;" x1="263" x2="3036" y1="1556" y2="1556"/>
  <line id="Capline-L" style="fill:none;stroke:#27AAE1;opacity:1;stroke-width:0.5;" x1="263" x2="3036" y1="1485.54" y2="1485.54"/>
  <line id="right-margin-Black-S" style="fill:none;stroke:#00AEEF;stroke-width:0.5;opacity:1.0;" x1="2985.35" x2="2985.35" y1="600.785" y2="720.121"/>
  <line id="left-margin-Black-S" style="fill:none;stroke:#00AEEF;stroke-width:0.5;opacity:1.0;" x1="2881.45" x2="2881.45" y1="600.785" y2="720.121"/>
  <line id="right-margin-Regular-S" style="fill:none;stroke:#00AEEF;stroke-width:0.5;opacity:1.0;" x1="1499.7" x2="1499.7" y1="600.785" y2="720.121"/>
  <line id="left-margin-Regular-S" style="fill:none;stroke:#00AEEF;stroke-width:0.5;opacity:1.0;" x1="1399.99" x2="1399.99" y1="600.785" y2="720.121"/>
  <line id="right-margin-Ultralight-S" style="fill:none;stroke:#00AEEF;stroke-width:0.5;opacity:1.0;" x1="609.269" x2="609.269" y1="600.785" y2="720.121"/>
  <line id="left-margin-Ultralight-S" style="fill:none;stroke:#00AEEF;stroke-width:0.5;opacity:1.0;" x1="510.153" x2="510.153" y1="600.785" y2="720.121"/>
 </g>
 <g id="Symbols">
  <g id="Black-S" transform="matrix(1 0 0 1 2881.45 696)">
   <path class="monochrome-0 multicolor-0:tintColor hierarchical-0:secondary SFSymbolsPreview007AFF" d="M33.9355-42.4316L69.9707-42.4316C74.1211-42.4316 76.6602-45.0195 76.6602-49.1211L76.6602-76.8066C76.6602-80.957 74.1211-83.4961 69.9707-83.4961L33.9355-83.4961C29.7852-83.4961 27.2461-80.957 27.2461-76.8066L27.2461-49.1211C27.2461-45.0195 29.7852-42.4316 33.9355-42.4316Z"/>
   <path class="monochrome-1 multicolor-1:tintColor hierarchical-1:primary SFSymbolsPreviewFFFFFF" d="M28.5645-11.5234L75.3418-11.5234C84.0332-11.5234 90.0879-17.5781 90.0879-26.2695L90.0879-62.207C90.0879-70.8984 84.0332-76.9531 75.3418-76.9531L28.5645-76.9531C19.873-76.9531 13.8184-70.8984 13.8184-62.207L13.8184-26.2695C13.8184-17.5781 19.873-11.5234 28.5645-11.5234Z"/>
   <path class="monochrome-2 multicolor-2:tintColor hierarchical-2:secondary SFSymbolsPreview007AFF" d="M28.5645-17.627L75.3418-17.627C80.6641-17.627 83.9844-20.9473 83.9844-26.2695L83.9844-62.207C83.9844-67.5293 80.6641-70.8496 75.3418-70.8496L28.5645-70.8496C23.2422-70.8496 19.9219-67.5293 19.9219-62.207L19.9219-26.2695C19.9219-20.9473 23.2422-17.627 28.5645-17.627Z"/>
   <path class="monochrome-3 multicolor-3:tintColor hierarchical-3:primary SFSymbolsPreviewFFFFFF" d="M25 19.5312L78.9062 19.5312C92.1387 19.5312 100.732 10.9375 100.732-2.29492L100.732-41.9434C100.732-55.1758 92.1387-63.7695 78.9062-63.7695L25-63.7695C11.7676-63.7695 3.17383-55.1758 3.17383-41.9434L3.17383-2.29492C3.17383 10.9375 11.7676 19.5312 25 19.5312Z"/>
   <path class="monochrome-4 multicolor-4:tintColor hierarchical-4:secondary SFSymbolsPreview007AFF" d="M25 12.9395L78.9062 12.9395C88.4766 12.9395 94.1406 7.27539 94.1406-2.29492L94.1406-41.9434C94.1406-51.5137 88.4766-57.1777 78.9062-57.1777L25-57.1777C15.4297-57.1777 9.76562-51.5137 9.76562-41.9434L9.76562-2.29492C9.76562 7.27539 15.4297 12.9395 25 12.9395ZM27.2461-1.2207C25-1.2207 23.9258-2.09961 23.9258-4.54102L23.9258-39.6973C23.9258-42.1387 25-43.0176 27.2461-43.0176L76.6602-43.0176C78.9062-43.0176 79.9805-42.1387 79.9805-39.6973L79.9805-4.54102C79.9805-2.09961 78.9062-1.2207 76.6602-1.2207Z"/>
   <path class="monochrome-5 multicolor-5:tintColor hierarchical-5:primary SFSymbolsPreview007AFF" d="M27.6292-13.2866C27.6292-8.6976 30.7179-6.27388 34.5686-6.27388C37.9044-6.27388 40.1021-7.61426 41.9282-9.25941L44.3373-11.3379C44.6964-11.6359 44.7596-11.7587 45.3068-11.7587L58.6003-11.7587C59.1491-11.7587 59.2123-11.6359 59.569-11.3379L61.9782-9.25941C63.8279-7.63705 66.0029-6.27388 69.3383-6.27388C73.1882-6.27388 76.2774-8.6976 76.2774-13.2866C76.2774-15.33 75.9506-17.5132 75.2759-19.7522C74.293-23.0344 72.6269-27.3873 71.097-30.6013C69.7064-33.5003 68.6676-35.5172 64.5982-36.431C61.2969-37.1823 57.0005-37.5947 51.9536-37.5947C46.9057-37.5947 42.6119-37.1823 39.3081-36.431C35.2389-35.5172 34.1998-33.5003 32.8101-30.6013C31.2792-27.3873 29.6134-23.0344 28.6303-19.7522C27.9555-17.5132 27.6292-15.33 27.6292-13.2866ZM33.5294-13.9412C33.5294-14.6883 33.7034-15.5575 34.0694-16.8111C35.175-20.5921 36.9203-25.1692 38.4268-28.3802C39.0958-29.8297 39.4609-30.238 40.2763-30.4456C43.2821-31.1766 47.1855-31.5182 51.9536-31.5182C56.7241-31.5182 60.6243-31.1766 63.6309-30.4456C64.4461-30.2404 64.8114-29.8297 65.4795-28.3802C66.9602-25.1692 68.7338-20.593 69.8378-16.8111C70.2028-15.5575 70.3772-14.6883 70.3772-13.9412C70.3772-12.8436 69.6009-12.31 68.6756-12.31C67.9563-12.31 67.1214-12.6323 66.3568-13.2714L62.2574-16.862C61.4324-17.5956 60.8278-17.8353 59.9229-17.8353L43.9835-17.8353C43.0785-17.8353 42.4739-17.5956 41.6498-16.862L37.5501-13.2714C36.81-12.6095 35.9502-12.31 35.2314-12.31C34.306-12.31 33.5294-12.8436 33.5294-13.9412Z"/>
   <path class="monochrome-6 multicolor-6:tintColor hierarchical-6:primary SFSymbolsPreview007AFF" d="M38.8462-24.4114C38.8462-23.1537 39.7132-22.3331 41.0141-22.3331L42.4751-22.3331L42.4751-21.0506C42.4751-19.7033 43.3657-18.7915 44.6936-18.7915C46.0223-18.7915 46.9129-19.7033 46.9129-21.0506L46.9129-22.3331L48.244-22.3331C49.6335-22.3331 50.5444-23.1537 50.5444-24.4114C50.5444-25.6709 49.6335-26.4914 48.244-26.4914L46.9129-26.4914L46.9129-27.774C46.9129-29.1213 46.0223-30.0331 44.6936-30.0331C43.3657-30.0331 42.4751-29.1213 42.4751-27.774L42.4751-26.4914L41.0141-26.4914C39.7132-26.4914 38.8462-25.6709 38.8462-24.4114ZM61.7768-24.2218C63.2851-24.2218 64.4405-25.3591 64.4405-26.865C64.4405-28.3686 63.2851-29.5278 61.7768-29.5278C60.2936-29.5278 59.1165-28.3686 59.1165-26.865C59.1165-25.3591 60.2936-24.2218 61.7768-24.2218ZM57.0222-19.2783C58.5273-19.2783 59.6825-20.4359 59.6825-21.9182C59.6825-23.4218 58.5273-24.5818 57.0222-24.5818C55.539-24.5818 54.3586-23.4218 54.3586-21.9182C54.3586-20.4359 55.539-19.2783 57.0222-19.2783Z"/>
  </g>
  <g id="Regular-S" transform="matrix(1 0 0 1 1399.99 696)">
   <path class="monochrome-0 multicolor-0:tintColor hierarchical-0:secondary SFSymbolsPreview007AFF" d="M31.6406-40.1367L68.0664-40.1367C71.8262-40.1367 73.9746-42.2363 73.9746-45.9473L73.9746-72.5586C73.9746-76.2695 71.8262-78.3691 68.0664-78.3691L31.6406-78.3691C27.8809-78.3691 25.7324-76.2695 25.7324-72.5586L25.7324-45.9473C25.7324-42.2363 27.8809-40.1367 31.6406-40.1367Z"/>
   <path class="monochrome-1 multicolor-1:tintColor hierarchical-1:primary SFSymbolsPreviewFFFFFF" d="M25.6836-11.9141L74.0723-11.9141C81.8848-11.9141 87.0117-16.9434 87.0117-24.707L87.0117-60.0586C87.0117-67.8711 81.8848-72.8516 74.0723-72.8516L25.6836-72.8516C17.8223-72.8516 12.7441-67.8711 12.7441-60.0586L12.7441-24.707C12.7441-16.9434 17.8223-11.9141 25.6836-11.9141Z"/>
   <path class="monochrome-2 multicolor-2:tintColor hierarchical-2:secondary SFSymbolsPreview007AFF" d="M25.5371-16.8945L74.1699-16.8945C79.1992-16.8945 82.0312-19.6777 82.0312-24.6094L82.0312-60.1562C82.0312-65.1367 79.1992-67.9199 74.1699-67.9199L25.5371-67.9199C20.5078-67.9199 17.6758-65.1367 17.6758-60.1562L17.6758-24.6094C17.6758-19.6777 20.5078-16.8945 25.5371-16.8945Z"/>
   <path class="monochrome-3 multicolor-3:tintColor hierarchical-3:primary SFSymbolsPreviewFFFFFF" d="M22.2168 13.7207L77.5391 13.7207C89.1113 13.7207 95.8984 7.03125 95.8984-4.49219L95.8984-43.5547C95.8984-55.0293 89.1113-61.7188 77.5391-61.7188L22.2168-61.7188C10.5957-61.7188 3.80859-55.0293 3.80859-43.5547L3.80859-4.49219C3.80859 7.03125 10.5957 13.7207 22.2168 13.7207Z"/>
   <path class="monochrome-4 multicolor-4:tintColor hierarchical-4:secondary SFSymbolsPreview007AFF" d="M22.2168 7.76367L77.5391 7.76367C85.8398 7.76367 89.9902 3.71094 89.9902-4.49219L89.9902-43.5547C89.9902-51.709 85.8398-55.8105 77.5391-55.8105L22.2168-55.8105C13.8672-55.8105 9.76562-51.7578 9.76562-43.5547L9.76562-4.49219C9.76562 3.71094 13.8672 7.76367 22.2168 7.76367ZM22.3145 0.732422C18.7988 0.732422 16.7969-1.17188 16.7969-4.88281L16.7969-43.1641C16.7969-46.875 18.7988-48.7793 22.3145-48.7793L77.4414-48.7793C80.957-48.7793 82.959-46.875 82.959-43.1641L82.959-4.88281C82.959-1.17188 80.957 0.732422 77.4414 0.732422Z"/>
   <path class="monochrome-5 multicolor-5:tintColor hierarchical-5:primary SFSymbolsPreview007AFF" d="M20.9162-14.4168C20.9162-9.31389 24.2913-6.30777 28.9309-6.30777C32.0298-6.30777 34.4943-7.5836 36.4222-9.6262L39.663-13.1109C40.1188-13.5899 40.4896-13.8238 41.0865-13.8238L58.6069-13.8238C59.2193-13.8238 59.5901-13.5899 60.0442-13.1109L63.285-9.6262C65.2111-7.59574 67.6636-6.30777 70.7624-6.30777C75.4158-6.30777 78.7912-9.31389 78.7912-14.4168C78.7912-16.6149 78.3652-19.0697 77.5859-21.6762C76.3898-25.6658 74.3252-31.0537 72.3909-35.1164C70.6949-38.6839 69.6349-40.7178 65.0768-41.7386C61.277-42.6 56.1316-43.1577 49.8467-43.1577C43.5756-43.1577 38.4318-42.6 34.6304-41.7386C30.0723-40.7178 29.0122-38.6839 27.3025-35.1164C25.3819-31.0537 23.3174-25.6658 22.1212-21.6762C21.3419-19.0697 20.9162-16.6149 20.9162-14.4168ZM26.0109-14.6951C26.0109-15.779 26.2584-17.0673 26.7558-18.7801C28.1197-23.4291 30.3407-29.1788 32.2336-33.2651C33.1217-35.1985 33.5782-36.0815 35.3468-36.4981C38.9201-37.349 43.7833-37.8686 49.8467-37.8686C55.9116-37.8686 60.7871-37.349 64.3466-36.4981C66.115-36.0831 66.5716-35.1985 67.4737-33.2651C69.3667-29.1788 71.5458-23.4152 72.9375-18.7801C73.4487-17.0673 73.6964-15.779 73.6964-14.6951C73.6964-12.6625 72.2503-11.4891 70.4385-11.4891C69.2605-11.4891 68.0356-12.0939 67.0156-13.1726L62.7734-17.579C61.7995-18.6458 61.0288-19.1129 59.4266-19.1129L40.2807-19.1129C38.6785-19.1129 37.9077-18.6458 36.9199-17.579L32.6776-13.1726C31.6853-12.0817 30.4467-11.4891 29.2548-11.4891C27.4428-11.4891 26.0109-12.6625 26.0109-14.6951Z"/>
   <path class="monochrome-6 multicolor-6:tintColor hierarchical-6:primary SFSymbolsPreview007AFF" d="M33.9333-28.2438C33.9333-26.9028 34.7794-26.067 36.143-26.067L38.6582-26.067L38.6582-23.7364C38.6582-22.3625 39.5025-21.4782 40.8521-21.4782C42.1877-21.4782 43.0321-22.3625 43.0321-23.7364L43.0321-26.067L45.3632-26.067C46.8171-26.067 47.7153-26.9028 47.7153-28.2438C47.7153-29.5569 46.8171-30.3927 45.3632-30.3927L43.0321-30.3927L43.0321-32.7233C43.0321-34.0973 42.1877-34.9815 40.8521-34.9815C39.5025-34.9815 38.6582-34.0973 38.6582-32.7233L38.6582-30.3927L36.143-30.3927C34.7794-30.3927 33.9333-29.5569 33.9333-28.2438ZM61.9332-28.19C63.652-28.19 65.0141-29.5431 65.0141-31.2603C65.0141-32.9759 63.652-34.355 61.9332-34.355C60.2281-34.355 58.8402-32.9759 58.8402-31.2603C58.8402-29.5431 60.2281-28.19 61.9332-28.19ZM56.2443-22.324C57.9754-22.324 59.3374-23.6876 59.3374-25.4065C59.3374-27.1221 57.9754-28.4873 56.2443-28.4873C54.5392-28.4873 53.1635-27.1221 53.1635-25.4065C53.1635-23.6876 54.5392-22.324 56.2443-22.324Z"/>
  </g>
  <g id="Ultralight-S" transform="matrix(1 0 0 1 510.153 696)">
   <path class="monochrome-0 multicolor-0:tintColor hierarchical-0:secondary SFSymbolsPreview007AFF" d="M28.2349-37.5938L70.8818-37.5938C72.5981-37.5938 73.8384-38.7852 73.8384-40.4981L73.8384-71.3779C73.8384-73.0908 72.5981-74.3277 70.8818-74.3277L28.2349-74.3277C26.5186-74.3277 25.2783-73.0908 25.2783-71.3779L25.2783-40.4981C25.2783-38.7852 26.5186-37.5938 28.2349-37.5938Z"/>
   <path class="monochrome-1 multicolor-1:tintColor hierarchical-1:primary SFSymbolsPreviewFFFFFF" d="M23.1406-12.0957L75.9795-12.0957C82.5205-12.0957 87.2388-16.8071 87.2388-23.3447L87.2388-60.9214C87.2388-67.5078 82.5205-72.2158 75.9795-72.2158L23.1406-72.2158C16.5962-72.2158 11.8814-67.5078 11.8814-60.9214L11.8814-23.3447C11.8814-16.8071 16.5962-12.0957 23.1406-12.0957Z"/>
   <path class="monochrome-2 multicolor-2:tintColor hierarchical-2:secondary SFSymbolsPreview007AFF" d="M21.314-18.3931L77.8027-18.3931C79.7441-18.3931 80.9414-19.5869 80.9414-21.5215L80.9414-62.79C80.9414-64.728 79.7441-65.9219 77.8027-65.9219L21.314-65.9219C19.3726-65.9219 18.1753-64.728 18.1753-62.79L18.1753-21.5215C18.1753-19.5869 19.3726-18.3931 21.314-18.3931Z"/>
   <path class="monochrome-3 multicolor-3:tintColor hierarchical-3:primary SFSymbolsPreviewFFFFFF" d="M19.7193 11.0869L79.4009 11.0869C89.9287 11.0869 96.625 4.30666 96.625-6.17235L96.625-46.5063C96.625-56.9819 89.9287-63.7622 79.4009-63.7622L19.7193-63.7622C9.188-63.7622 2.49171-57.0727 2.49171-46.5063L2.49171-6.17235C2.49171 4.39748 9.188 11.0869 19.7193 11.0869Z"/>
   <path class="monochrome-4 multicolor-4:tintColor hierarchical-4:secondary SFSymbolsPreview007AFF" d="M19.7193 3.81302L79.4009 3.81302C85.9307 3.81302 89.3545 0.259793 89.3545-6.17235L89.3545-46.5063C89.3545-52.9805 85.9307-56.4917 79.4009-56.4917L19.7193-56.4917C13.186-56.4917 9.76562-53.0747 9.76562-46.5063L9.76562-6.17235C9.76562 0.350612 13.186 3.81302 19.7193 3.81302ZM19.8169 1.59521C14.6665 1.59521 11.938-1.08106 11.938-6.29052L11.938-46.4336C11.938-51.5976 14.6665-54.3193 19.8169-54.3193L79.3032-54.3193C84.2719-54.3193 87.1821-51.5976 87.1821-46.4336L87.1821-6.29052C87.1821-1.08106 84.2719 1.59521 79.3032 1.59521Z"/>
   <path class="monochrome-5 multicolor-5:tintColor hierarchical-5:primary SFSymbolsPreview007AFF" d="M22.4509-16.8807C22.4509-12.727 25.166-9.99311 29.2121-9.99311C31.2624-9.99311 33.2926-10.8977 34.8377-12.7802L38.4283-17.132C38.9641-17.7799 39.5213-18.0585 40.1735-18.0585L58.9333-18.0585C59.5811-18.0585 60.1383-17.7799 60.6885-17.132L64.2791-12.7802C65.8141-10.8977 67.8445-9.99311 69.8948-9.99311C73.9509-9.99311 76.6658-12.727 76.6658-16.8807C76.6658-18.68 76.212-20.7965 75.4653-23.3055C74.2933-27.2262 72.257-32.5297 70.2464-36.7608C68.687-40.0318 67.9086-41.3897 64.1468-42.2455C60.4097-43.0943 55.3861-43.6083 49.5534-43.6083C43.7307-43.6083 38.6927-43.0943 34.9699-42.2455C31.2081-41.3897 30.4299-40.0318 28.8605-36.7608C26.8598-32.5297 24.8234-27.2262 23.6516-23.3055C22.9047-20.7965 22.4509-18.68 22.4509-16.8807ZM24.371-16.7587C24.371-17.9838 24.6108-19.4818 25.3925-22.1719C26.5482-26.1041 28.6935-31.65 30.6986-36.045C31.6551-38.1433 32.2916-39.6174 35.1103-40.2552C38.6822-41.0897 43.7133-41.6181 49.5534-41.6181C55.3791-41.6181 60.4346-41.0897 63.9965-40.2552C66.8151-39.603 67.4517-38.1433 68.4182-36.045C70.4475-31.65 72.5387-26.0941 73.7144-22.1719C74.5059-19.4818 74.7456-17.9838 74.7456-16.7587C74.7456-13.8167 72.7521-11.9232 69.9147-11.9232C68.3503-11.9232 66.7962-12.7376 65.5637-14.2186L61.9604-18.5643C61.119-19.5923 60.3521-20.0487 58.9703-20.0487L40.1465-20.0487C38.7647-20.0487 37.9978-19.5923 37.1464-18.5643L33.5431-14.2186C32.3063-12.7376 30.7664-11.9232 29.1921-11.9232C26.3547-11.9232 24.371-13.8167 24.371-16.7587Z"/>
   <path class="monochrome-6 multicolor-6:tintColor hierarchical-6:primary SFSymbolsPreview007AFF" d="M34.3038-30.6791C34.3038-30.0641 34.704-29.6539 35.3334-29.6539L39.6184-29.6539L39.6184-25.2852C39.6184-24.6658 40.0085-24.2556 40.6035-24.2556C41.1884-24.2556 41.5785-24.6658 41.5785-25.2852L41.5785-29.6539L45.7833-29.6539C46.4428-29.6539 46.863-30.0641 46.863-30.6791C46.863-31.274 46.4428-31.6842 45.7833-31.6842L41.5785-31.6842L41.5785-36.0529C41.5785-36.6723 41.1884-37.0825 40.6035-37.0825C40.0085-37.0825 39.6184-36.6723 39.6184-36.0529L39.6184-31.6842L35.3334-31.6842C34.704-31.6842 34.3038-31.274 34.3038-30.6791ZM61.3623-31.1509C62.7478-31.1509 63.8691-32.2433 63.8691-33.6432C63.8691-35.0574 62.7478-36.1599 61.3623-36.1599C59.9625-36.1599 58.8312-35.0574 58.8312-33.6432C58.8312-32.2433 59.9625-31.1509 61.3623-31.1509ZM55.4275-25.3673C56.8373-25.3673 57.9586-26.4742 57.9586-27.8841C57.9586-29.2983 56.8373-30.3908 55.4275-30.3908C54.0276-30.3908 52.9207-29.2983 52.9207-27.8841C52.9207-26.4742 54.0276-25.3673 55.4275-25.3673Z"/>
  </g>
 </g>
</svg>
